<svg xmlns="http://www.w3.org/2000/svg" width="720" height="380" viewBox="0 0 720 380" font-family="'SF Mono','JetBrains Mono','Fira Code',Menlo,Consolas,monospace">
  <rect width="720" height="380" rx="12" fill="#F7F5FC"/>
  <path d="M0 12 Q0 0 12 0 H708 Q720 0 720 12 V52 H0 Z" fill="#EEEAF6"/>
  <circle cx="22" cy="26" r="6.5" fill="#F659A8"/><circle cx="44" cy="26" r="6.5" fill="#E1C631"/><circle cx="66" cy="26" r="6.5" fill="#5DB1FF"/>
  <text x="360" y="31" text-anchor="middle" fill="#2A3052" font-size="13" font-weight="600">uRadical Pastel Light</text>
  <text x="22" y="70" fill="#BEC4DF" font-size="13"> 1</text><text x="66.0" y="70" fill="#9277C4" xml:space="preserve">import</text><text x="120.1" y="70" fill="#3D4468" xml:space="preserve"> </text><text x="129.1" y="70" fill="#7E87AD" xml:space="preserve">{ </text><text x="147.2" y="70" fill="#3D4468" xml:space="preserve">palette</text><text x="210.3" y="70" fill="#7E87AD" xml:space="preserve"> }</text><text x="228.4" y="70" fill="#3D4468" xml:space="preserve"> </text><text x="237.4" y="70" fill="#9277C4" xml:space="preserve">from</text><text x="273.5" y="70" fill="#3D4468" xml:space="preserve"> </text><text x="282.5" y="70" fill="#7E6A1E" xml:space="preserve">"./brand"</text><text x="363.7" y="70" fill="#7E87AD" xml:space="preserve">;</text><text x="22" y="94" fill="#BEC4DF" font-size="13"> 2</text><text x="22" y="118" fill="#BEC4DF" font-size="13"> 3</text><text x="66.0" y="118" fill="#8C8CAD" font-style="italic" xml:space="preserve">// uRadical brand-aligned theme</text><text x="22" y="142" fill="#BEC4DF" font-size="13"> 4</text><text x="66.0" y="142" fill="#9277C4" xml:space="preserve">export</text><text x="120.1" y="142" fill="#3D4468" xml:space="preserve"> </text><text x="129.1" y="142" fill="#9277C4" xml:space="preserve">const</text><text x="174.2" y="142" fill="#3D4468" xml:space="preserve"> </text><text x="183.3" y="142" fill="#3D4468" xml:space="preserve">scheme</text><text x="237.4" y="142" fill="#5B8FCF" xml:space="preserve"> = </text><text x="264.4" y="142" fill="#7E87AD" xml:space="preserve">{</text><text x="22" y="166" fill="#BEC4DF" font-size="13"> 5</text><text x="66.0" y="166" fill="#3D4468" xml:space="preserve">  </text><text x="84.0" y="166" fill="#5B8FCF" xml:space="preserve">navy</text><text x="120.1" y="166" fill="#7E87AD" xml:space="preserve">: </text><text x="138.2" y="166" fill="#7E6A1E" xml:space="preserve">"#0C1A50"</text><text x="219.3" y="166" fill="#7E87AD" xml:space="preserve">,</text><text x="22" y="190" fill="#BEC4DF" font-size="13"> 6</text><text x="66.0" y="190" fill="#3D4468" xml:space="preserve">  </text><text x="84.0" y="190" fill="#5B8FCF" xml:space="preserve">accents</text><text x="147.2" y="190" fill="#7E87AD" xml:space="preserve">: [</text><text x="174.2" y="190" fill="#7E6A1E" xml:space="preserve">"#5DB1FF"</text><text x="255.4" y="190" fill="#7E87AD" xml:space="preserve">, </text><text x="273.5" y="190" fill="#7E6A1E" xml:space="preserve">"#9F72E1"</text><text x="354.6" y="190" fill="#7E87AD" xml:space="preserve">, </text><text x="372.7" y="190" fill="#7E6A1E" xml:space="preserve">"#F659A8"</text><text x="453.9" y="190" fill="#7E87AD" xml:space="preserve">],</text><text x="22" y="214" fill="#BEC4DF" font-size="13"> 7</text><text x="66.0" y="214" fill="#3D4468" xml:space="preserve">  </text><text x="84.0" y="214" fill="#5B8FCF" xml:space="preserve">contrast</text><text x="156.2" y="214" fill="#7E87AD" xml:space="preserve">: </text><text x="174.2" y="214" fill="#C76B9E" xml:space="preserve">4.5</text><text x="201.3" y="214" fill="#7E87AD" xml:space="preserve">,</text><text x="22" y="238" fill="#BEC4DF" font-size="13"> 8</text><text x="66.0" y="238" fill="#7E87AD" xml:space="preserve">}</text><text x="75.0" y="238" fill="#7E87AD" xml:space="preserve">;</text><text x="22" y="262" fill="#BEC4DF" font-size="13"> 9</text><text x="22" y="286" fill="#BEC4DF" font-size="13">10</text><text x="66.0" y="286" fill="#9277C4" xml:space="preserve">function</text><text x="138.2" y="286" fill="#3D4468" xml:space="preserve"> </text><text x="147.2" y="286" fill="#5B8FCF" xml:space="preserve">applyTheme</text><text x="237.4" y="286" fill="#7E87AD" xml:space="preserve">(</text><text x="246.4" y="286" fill="#3D4468" xml:space="preserve">el</text><text x="264.4" y="286" fill="#7E87AD" xml:space="preserve">: </text><text x="282.5" y="286" fill="#A78DD2" xml:space="preserve">HTMLElement</text><text x="381.7" y="286" fill="#7E87AD" xml:space="preserve">) {</text><text x="22" y="310" fill="#BEC4DF" font-size="13">11</text><text x="66.0" y="310" fill="#3D4468" xml:space="preserve">  </text><text x="84.0" y="310" fill="#3D4468" xml:space="preserve">el</text><text x="102.1" y="310" fill="#7E87AD" xml:space="preserve">.</text><text x="111.1" y="310" fill="#5B8FCF" xml:space="preserve">style</text><text x="156.2" y="310" fill="#7E87AD" xml:space="preserve">.</text><text x="165.2" y="310" fill="#5B8FCF" xml:space="preserve">background</text><text x="255.4" y="310" fill="#5B8FCF" xml:space="preserve"> = </text><text x="282.5" y="310" fill="#3D4468" xml:space="preserve">scheme</text><text x="336.6" y="310" fill="#7E87AD" xml:space="preserve">.</text><text x="345.6" y="310" fill="#5B8FCF" xml:space="preserve">navy</text><text x="381.7" y="310" fill="#7E87AD" xml:space="preserve">;</text><text x="22" y="334" fill="#BEC4DF" font-size="13">12</text><text x="66.0" y="334" fill="#3D4468" xml:space="preserve">  </text><text x="84.0" y="334" fill="#9277C4" xml:space="preserve">return</text><text x="138.2" y="334" fill="#3D4468" xml:space="preserve"> </text><text x="147.2" y="334" fill="#C76B9E" xml:space="preserve">true</text><text x="183.3" y="334" fill="#7E87AD" xml:space="preserve">;</text><text x="22" y="358" fill="#BEC4DF" font-size="13">13</text><text x="66.0" y="358" fill="#7E87AD" xml:space="preserve">}</text>
</svg>